<?xml version="1.0" encoding="utf-8"?>
<!-- Generator: Adobe Illustrator 25.2.1, SVG Export Plug-In . SVG Version: 6.00 Build 0)  -->
<svg version="1.1" id="katman_1" xmlns="http://www.w3.org/2000/svg" xmlns:xlink="http://www.w3.org/1999/xlink" x="0px" y="0px"
	 viewBox="0 0 1772 1772" style="enable-background:new 0 0 1772 1772;" xml:space="preserve">
<style type="text/css">
	.st0{fill:#337ABE;}
</style>
<path d="M820.2,624.6c-2.7,2.7-2.9,3.5-2.9,10.3c0,4-0.4,7.8-0.8,8.4c-0.4,0.6-4.3,2.3-8.7,3.8c-4.4,1.4-10.7,4.1-14,6l-6,3.4
	l-6.2-5.9c-6.6-6.4-9.7-7.3-15.1-4.5c-2.7,1.4-27.3,26-32.5,32.4c-4.5,5.6-3.8,9.9,2.7,17.2c5.8,6.5,5.8,6.6,2.4,14.5
	c-0.4,1.1-2.5,6.3-4.7,11.5l-3.8,9.5l-7.9,0.5c-8.5,0.5-11.2,1.8-13.8,6.1c-1.4,2.3-1.6,6.5-1.6,27.3v24.6l3.3,3.6
	c3.2,3.5,3.7,3.7,11.6,4.3l8.4,0.6l1.3,4.5c1.4,4.4,1.3,4.5-1.4,6.7c-6.4,5.3-25.1,12.3-32.8,12.3c-1.8,0-6.9-1.4-11.5-3.2
	c-6.3-2.4-10.1-3.2-14.9-3.3h-6.5L653,824c-10.7,8-14.3,11.8-13,13.9c0.8,1.4,4,0.8,5.7-1.1c2.3-2.5,9-4.1,17.6-4.1
	c8,0,12.7,1.8,13.5,5.3c2,9,2.5,11.8,2.5,16.2c0,2.7-0.9,6.8-1.9,9c-1.7,3.8-2.2,4.1-10.7,6.7c-4.9,1.5-10.7,3-12.9,3.3
	s-4.7,1-5.5,1.5c-4.3,2.7,9.6,7.7,24.2,8.7c6.9,0.5,9.7,0.2,13.2-1.1c7.3-2.8,8.5-4.7,16.1-25.9c2.2-6.1,5.5-10,12.2-14.3
	c7.6-4.9,22.1-12.4,23.8-12.4c2.4,0,1.7,1.7-1.6,4.1c-4.5,3.1-6.2,7.9-4.9,12.9c0.9,3.2,4.5,7.5,17.8,21l16.7,17h4.7
	c5.4,0,10.8-2.7,12.8-6.5c2.2-4,4.8-4,14.1,0.3c4.7,2.2,11.1,4.7,14.1,5.6l5.6,1.6l0.3,7.9c0.3,6.1,0.9,8.6,2.5,10.8
	c3.9,5.2,5,5.4,30.4,5.1c30.2-0.4,30.9-0.8,32-16.3l0.5-7.9l7-2.6c3.9-1.5,9.8-4.1,13.2-5.8c3.4-1.8,6.8-3.2,7.6-3.2
	c0.7,0,3.3,2,5.7,4.5c5.3,5.4,9.7,7.1,14.2,5.6c1.8-0.7,8.8-7,17.7-16.2c17.7-18.4,19.1-20.2,19.1-24.8c0-3-0.9-4.5-5.6-9.1
	c-5.3-5.2-5.6-5.6-5-9.3c0.7-4.2,2.2-7.8,6.1-14.7c1.4-2.5,2.5-5.9,2.5-7.7c0-5,2.1-6.3,10.3-6.3c8.1,0,10.7-1.2,13.2-6.1
	c1.3-2.5,1.5-6.4,0.9-25.7c-0.3-12.5-1-24.2-1.6-26c-1.4-4.7-4.9-6.5-13.7-7.2l-7.5-0.5l-1.9-5l-1.8-5l2.2-1.5
	c1.2-0.8,4.2-2.6,6.8-4c25.8-14.1,23.9-13.3,29.2-12.6c2.6,0.4,8,2,11.8,3.6c7.4,3.2,14.6,3.9,19.8,1.9c3.5-1.3,21-15.5,22.4-18.1
	c0.6-1.1,0.7-2.4,0.2-2.9c-0.4-0.4-5.7,0.3-11.7,1.6c-6,1.4-11.9,2.5-13.3,2.5c-8.2,0-15.1-13.6-12.9-25.5c1.2-6.1,3.8-7.8,17.4-11
	c7.5-1.8,12.2-3.4,12.2-4.2c0-3.8-17.1-7.6-29.7-6.7c-8.5,0.7-8.9,0.8-12.3,4.3c-3.4,3.6-5.9,9.4-9.5,22.2
	c-2.2,8-9.9,14.7-25.3,21.8c-4.9,2.4-7.7,1.9-6.2-0.9c0.6-1,1-3.7,1-6c0-4.1-0.5-4.7-13.7-18.2c-7.6-7.7-15.9-15.5-18.4-17.4
	c-7.1-5.2-13.2-4.6-17.3,1.7c-3.3,5-5.9,5.1-15.8,0.6c-4-1.9-9.9-4.2-13.1-5.2s-6.1-2.3-6.5-2.9c-0.4-0.6-0.9-4.7-1.2-9.1l-0.5-8
	l-3.7-1.2c-4.9-1.6-25.9-3.3-40.5-3.3C823.3,621.7,823.1,621.7,820.2,624.6z M874.8,660.6c10.5,2.9,27.1,10.9,35.5,17.1
	c13.7,10.2,25.9,25.1,33,40.4c8.5,18.1,10.9,30.5,9.9,51.1c-0.7,16.6-2.7,25.7-8.2,38.4c-10.5,24.2-33.7,47.2-56.7,56
	c-14.2,5.5-22.9,7.1-39,7.1c-23,0-38.6-4.4-56.5-15.7c-10.2-6.6-27.9-24.8-33.5-34.7c-6.1-11-10.9-23.2-13.1-34
	c-2.1-10.3-2.5-29.1-0.9-39.6c6.4-40.2,36.7-74.7,74.8-85.2c12.2-3.3,15.9-3.7,31.7-3.4C863.3,658.4,868.7,659,874.8,660.6z"/>
<path class="st0" d="M835.3,688.1c-32.7,5.1-58.8,26.9-65.1,54.4c-1.9,8.4-1.2,22.4,1.5,29.6c4.5,11.9,12,21.6,23,30.1
	c10.6,8,20.3,12.1,36.1,15.3l9,1.8v7v6.9l8.3,0.6c9.6,0.7,13,2.8,11.8,7.2c-1.1,4.7-11.3,6.1-23.1,3.2c-10.9-2.6-15.1-1.5-14.3,3.7
	c0.9,6.6,28.9,10.9,43,6.5c14.9-4.6,19.4-18.3,8.6-25.5c-3.4-2.2-5.6-2.8-12.6-3.2c-6.8-0.4-8.7-0.9-9.6-2.3
	c-1.7-2.8,1.3-4.3,9.8-5.1c9.5-0.9,18.1-3.4,28.6-8.5c4.7-2.2,9.5-4.1,10.8-4.1c8,0,17.4-12.2,17.6-22.7c0-4.5-0.4-5.7-2.9-8.3
	c-4.8-5-6.4-4.9-16.9,1.4c-19.6,11.7-34.2,11.7-55.6,0.1c-5.7-3.1-13.1-11.9-16.7-19.9c-3.3-7.4-3.6-8.7-3.6-18
	c0-6.8,0.3-10.1,1.1-10.4c0.7-0.2,1.2-1,1.2-1.8c0-3,8.6-10.2,14.1-11.8c16.1-4.8,32,1.9,45.9,19.3c6.2,7.8,15.7,10.1,24.3,6.1
	c7.9-3.7,10.8-10.2,9.7-21.1c-0.8-7.8-4.7-15.2-11-21.4l-4.1-4l-10.1,0.2c-7.4,0.2-12-0.3-17.2-1.7
	C860.5,687.2,848.3,686.1,835.3,688.1z"/>
</svg>
